<svg xmlns="http://www.w3.org/2000/svg" viewBox="0 0 100 100" fill="none">
  <g opacity="0.08">
    <path d="M50 85c-3.5-2-7-5-10-9s-5.5-8.5-7-13.5-2-10.5-1.5-16 2-11 4.5-15.5 6-8.5 10-11.5 8.5-5 13.5-5.5 10.5 0 15.5 2 9.5 5 13.5 9 7 9 8.5 14.5 2 11.5 1 17.5-2.5 11.5-5.5 16.5-7 9.5-11.5 12.5-10 5.5-15.5 6-11.5-0.5-16.5-3z" fill="currentColor"/>
    <path d="M50 20c2 4 3.5 8.5 4.5 13s1.5 9.5 1 14.5-2 10-4 14.5-4.5 8.5-7.5 12-6.5 6.5-10.5 8.5-8.5 3-13 3-9.5-1-14-3.5-8.5-6-11.5-10.5-5-9.5-5.5-15 0.5-11 2.5-16 5-9.5 8.5-13.5 8-7.5 12.5-10 9.5-4 14.5-4.5 10.5 0 15.5 2z" fill="currentColor"/>
    <circle cx="50" cy="50" r="8" fill="currentColor"/>
  </g>
</svg>