<svg xmlns="http://www.w3.org/2000/svg" viewBox="0 0 60 100" fill="none">
  <g opacity="0.06">
    <path d="M30 5c8 0 15 3 20 8s8 12 8 19c0 5-1.5 10-4 14s-6 7.5-10 10-8.5 4.5-13.5 6-10.5 2.5-16 3.5-11.5 2-17.5 3.5c-3 0.75-6 1.5-9 2.5s-6 2.5-8.5 4.5-4.5 4.5-5.5 7.5-1 6.5 0 10 3 7 5.5 10 5.5 5.5 9 7.5 7.5 3.5 11.5 4.5 8.5 1.5 13 1.5c7 0 13.5-2 19-6s10-9.5 13-16 4.5-13.5 4.5-21c0-10-3-19.5-8-27.5s-12-14.5-20-19-17-7-26-7z" fill="currentColor"/>
    <path d="M25 25c3 1 5.5 3 7.5 5.5s3.5 5.5 4 8.5 0 6-1.5 8.5-4 4.5-6.5 6-5.5 2.5-8.5 3-6 0.5-9 0-6-1-8.5-2.5-4.5-3.5-6-6-2.5-5.5-2.5-8.5 1-6 3-8.5 4.5-4.5 7.5-5.5 6.5-1.5 10-1 7 0.5 10 2z" fill="currentColor"/>
  </g>
</svg>